<?xml version="1.0" encoding="UTF-8"?>
<svg version="1.1" xmlns="http://www.w3.org/2000/svg" width="2100" height="1500">
<path d="M0 0 C3.54150316 0.0526265 7.08321264 0.07428851 10.625 0.09918213 C17.48353919 0.15163894 24.34132103 0.23609668 31.19921875 0.34332275 C31.19921875 1.00332275 31.19921875 1.66332275 31.19921875 2.34332275 C18.01878486 9.91044244 2.83094926 12.27248326 -11.98828125 14.71832275 C-12.87694885 14.86572906 -13.76561646 15.01313538 -14.68121338 15.16500854 C-43.16293352 19.79989009 -72.01322366 21.75506831 -100.75958252 24.02301025 C-104.55620022 24.32298769 -108.35213606 24.63097436 -112.14794922 24.940979 C-135.03937639 26.80755417 -157.92397081 28.39570204 -180.86260986 29.54852295 C-203.53250004 30.68884216 -226.12676698 32.32447737 -248.73828125 34.28082275 C-249.45041149 34.34213127 -250.16254173 34.40343979 -250.89625168 34.46660614 C-288.39522961 37.6958599 -325.82486667 41.61338819 -363.24511719 45.6428833 C-367.19512372 46.06816856 -371.14531705 46.49164606 -375.09570312 46.91339111 C-412.45260937 50.90210026 -449.77805495 55.08019184 -486.98828125 60.28082275 C-489.50055392 60.62794189 -492.01284269 60.97494459 -494.52514648 61.32183838 C-504.89968686 62.76194921 -515.26962068 64.21136472 -525.60546875 65.909729 C-526.70627274 66.09032364 -526.70627274 66.09032364 -527.82931519 66.27456665 C-528.91468063 66.45265366 -528.91468063 66.45265366 -530.02197266 66.63433838 C-560.14062759 71.56751519 -590.55534487 74.41279338 -620.8960619 77.61339664 C-628.64262155 78.43098059 -636.38772557 79.26192485 -644.1328125 80.09332275 C-700.71806728 86.15581816 -757.3253326 92.03061106 -813.95574951 97.65539551 C-870.28350587 103.17968839 -870.28350587 103.17968839 -926.40840149 110.4263916 C-930.16407147 110.97246635 -933.92161714 111.497058 -937.68383789 111.99615479 C-953.24391261 114.06219255 -968.7422215 116.46977873 -984.23828125 118.96832275 C-985.24217707 119.12977594 -985.24217707 119.12977594 -986.26635361 119.29449081 C-1011.45311849 123.34624069 -1036.5216165 127.89440818 -1061.53869629 132.89276123 C-1064.77814547 133.53799392 -1068.0198942 134.17107023 -1071.26171875 134.80426025 C-1077.11472024 135.95244612 -1082.95898459 137.13958255 -1088.80078125 138.34332275 C-1089.86538574 138.56020752 -1090.92999023 138.77709229 -1092.02685547 139.00054932 C-1134.69086756 147.72602396 -1175.97542843 160.26570499 -1216.80078125 175.34332275 C-1220.00036496 176.52385881 -1223.20015027 177.70377512 -1226.40161133 178.87921143 C-1228.31745842 179.58373652 -1230.23149694 180.29320789 -1232.14331055 181.00860596 C-1232.98031494 181.31757813 -1233.81731934 181.62655029 -1234.6796875 181.94488525 C-1235.40744385 182.21639404 -1236.1352002 182.48790283 -1236.88500977 182.76763916 C-1238.80078125 183.34332275 -1238.80078125 183.34332275 -1241.80078125 183.34332275 C-1241.80078125 184.00332275 -1241.80078125 184.66332275 -1241.80078125 185.34332275 C-1242.8165625 185.71843994 -1243.83234375 186.09355713 -1244.87890625 186.4800415 C-1261.32379585 192.58092101 -1277.24454438 199.48253346 -1292.90625 207.378479 C-1293.53966309 207.69703857 -1294.17307617 208.01559814 -1294.82568359 208.34381104 C-1296.21987741 209.04935238 -1297.61051114 209.76195005 -1298.99853516 210.47955322 C-1300.07047119 211.02893555 -1300.07047119 211.02893555 -1301.1640625 211.5894165 C-1302.1372644 212.09299683 -1302.1372644 212.09299683 -1303.13012695 212.60675049 C-1304.80078125 213.34332275 -1304.80078125 213.34332275 -1306.80078125 213.34332275 C-1306.80078125 214.00332275 -1306.80078125 214.66332275 -1306.80078125 215.34332275 C-1308.06769632 216.01740583 -1309.33948874 216.68232772 -1310.61328125 217.34332275 C-1311.32097656 217.71457275 -1312.02867187 218.08582275 -1312.7578125 218.46832275 C-1314.80078125 219.34332275 -1314.80078125 219.34332275 -1317.80078125 219.34332275 C-1317.80078125 220.00332275 -1317.80078125 220.66332275 -1317.80078125 221.34332275 C-1319.45078125 221.67332275 -1321.10078125 222.00332275 -1322.80078125 222.34332275 C-1322.80078125 223.00332275 -1322.80078125 223.66332275 -1322.80078125 224.34332275 C-1323.42984375 224.64625244 -1324.05890625 224.94918213 -1324.70703125 225.2612915 C-1329.72378789 227.71678233 -1334.48509608 230.28779524 -1339.109375 233.425354 C-1340.80078125 234.34332275 -1340.80078125 234.34332275 -1343.80078125 234.34332275 C-1343.80078125 235.00332275 -1343.80078125 235.66332275 -1343.80078125 236.34332275 C-1345.45078125 236.67332275 -1347.10078125 237.00332275 -1348.80078125 237.34332275 C-1348.80078125 238.00332275 -1348.80078125 238.66332275 -1348.80078125 239.34332275 C-1350.45078125 239.67332275 -1352.10078125 240.00332275 -1353.80078125 240.34332275 C-1353.80078125 241.00332275 -1353.80078125 241.66332275 -1353.80078125 242.34332275 C-1354.46078125 242.34332275 -1355.12078125 242.34332275 -1355.80078125 242.34332275 C-1355.80078125 243.00332275 -1355.80078125 243.66332275 -1355.80078125 244.34332275 C-1357.45078125 244.67332275 -1359.10078125 245.00332275 -1360.80078125 245.34332275 C-1360.80078125 246.00332275 -1360.80078125 246.66332275 -1360.80078125 247.34332275 C-1361.79078125 247.34332275 -1362.78078125 247.34332275 -1363.80078125 247.34332275 C-1363.80078125 248.00332275 -1363.80078125 248.66332275 -1363.80078125 249.34332275 C-1365.45078125 249.67332275 -1367.10078125 250.00332275 -1368.80078125 250.34332275 C-1368.80078125 251.00332275 -1368.80078125 251.66332275 -1368.80078125 252.34332275 C-1370.8828125 253.85113525 -1370.8828125 253.85113525 -1373.61328125 255.46832275 C-1374.95326172 256.27656494 -1374.95326172 256.27656494 -1376.3203125 257.10113525 C-1378.80078125 258.34332275 -1378.80078125 258.34332275 -1381.80078125 258.34332275 C-1381.80078125 259.00332275 -1381.80078125 259.66332275 -1381.80078125 260.34332275 C-1383.45078125 260.67332275 -1385.10078125 261.00332275 -1386.80078125 261.34332275 C-1386.80078125 262.00332275 -1386.80078125 262.66332275 -1386.80078125 263.34332275 C-1387.46078125 263.34332275 -1388.12078125 263.34332275 -1388.80078125 263.34332275 C-1388.80078125 264.00332275 -1388.80078125 264.66332275 -1388.80078125 265.34332275 C-1393.18539663 268.34332275 -1393.18539663 268.34332275 -1395.80078125 268.34332275 C-1395.80078125 269.00332275 -1395.80078125 269.66332275 -1395.80078125 270.34332275 C-1396.79078125 270.34332275 -1397.78078125 270.34332275 -1398.80078125 270.34332275 C-1398.80078125 271.00332275 -1398.80078125 271.66332275 -1398.80078125 272.34332275 C-1399.46078125 272.34332275 -1400.12078125 272.34332275 -1400.80078125 272.34332275 C-1400.80078125 273.00332275 -1400.80078125 273.66332275 -1400.80078125 274.34332275 C-1402.45078125 275.00332275 -1404.10078125 275.66332275 -1405.80078125 276.34332275 C-1405.80078125 277.00332275 -1405.80078125 277.66332275 -1405.80078125 278.34332275 C-1407.26171875 279.63238525 -1407.26171875 279.63238525 -1409.17578125 280.96832275 C-1409.80226563 281.41433838 -1410.42875 281.860354 -1411.07421875 282.31988525 C-1412.80078125 283.34332275 -1412.80078125 283.34332275 -1414.80078125 283.34332275 C-1414.80078125 284.00332275 -1414.80078125 284.66332275 -1414.80078125 285.34332275 C-1415.46078125 285.34332275 -1416.12078125 285.34332275 -1416.80078125 285.34332275 C-1416.80078125 286.00332275 -1416.80078125 286.66332275 -1416.80078125 287.34332275 C-1418.45078125 288.00332275 -1420.10078125 288.66332275 -1421.80078125 289.34332275 C-1421.80078125 290.00332275 -1421.80078125 290.66332275 -1421.80078125 291.34332275 C-1422.46078125 291.34332275 -1423.12078125 291.34332275 -1423.80078125 291.34332275 C-1423.80078125 292.00332275 -1423.80078125 292.66332275 -1423.80078125 293.34332275 C-1425.45078125 294.00332275 -1427.10078125 294.66332275 -1428.80078125 295.34332275 C-1428.80078125 296.00332275 -1428.80078125 296.66332275 -1428.80078125 297.34332275 C-1429.46078125 297.34332275 -1430.12078125 297.34332275 -1430.80078125 297.34332275 C-1430.80078125 298.00332275 -1430.80078125 298.66332275 -1430.80078125 299.34332275 C-1431.46078125 299.34332275 -1432.12078125 299.34332275 -1432.80078125 299.34332275 C-1432.80078125 300.00332275 -1432.80078125 300.66332275 -1432.80078125 301.34332275 C-1433.79078125 301.34332275 -1434.78078125 301.34332275 -1435.80078125 301.34332275 C-1435.80078125 302.00332275 -1435.80078125 302.66332275 -1435.80078125 303.34332275 C-1436.46078125 303.34332275 -1437.12078125 303.34332275 -1437.80078125 303.34332275 C-1437.80078125 304.00332275 -1437.80078125 304.66332275 -1437.80078125 305.34332275 C-1442.27136949 309.34332275 -1442.27136949 309.34332275 -1444.80078125 309.34332275 C-1444.80078125 310.00332275 -1444.80078125 310.66332275 -1444.80078125 311.34332275 C-1445.46078125 311.34332275 -1446.12078125 311.34332275 -1446.80078125 311.34332275 C-1446.80078125 312.00332275 -1446.80078125 312.66332275 -1446.80078125 313.34332275 C-1448.4453125 315.034729 -1448.4453125 315.034729 -1450.61328125 316.90582275 C-1451.32097656 317.52586182 -1452.02867187 318.14590088 -1452.7578125 318.784729 C-1454.80078125 320.34332275 -1454.80078125 320.34332275 -1457.80078125 321.34332275 C-1458.14109375 322.39519775 -1458.14109375 322.39519775 -1458.48828125 323.46832275 C-1460.1913661 327.19888956 -1462.64430294 328.97890967 -1465.765625 331.56207275 C-1467.63526394 333.1984554 -1469.13961591 334.83654185 -1470.67578125 336.78082275 C-1471.37703125 337.62644775 -1472.07828125 338.47207275 -1472.80078125 339.34332275 C-1473.46078125 339.34332275 -1474.12078125 339.34332275 -1474.80078125 339.34332275 C-1475.02636719 339.88730713 -1475.25195312 340.4312915 -1475.484375 340.99176025 C-1477.21301912 344.07972394 -1479.44628269 346.38787249 -1481.86328125 348.96832275 C-1485.21611772 352.38542028 -1485.21611772 352.38542028 -1487.80078125 356.34332275 C-1488.46078125 356.34332275 -1489.12078125 356.34332275 -1489.80078125 356.34332275 C-1490.46078125 357.99332275 -1491.12078125 359.64332275 -1491.80078125 361.34332275 C-1492.46078125 361.34332275 -1493.12078125 361.34332275 -1493.80078125 361.34332275 C-1493.80078125 362.33332275 -1493.80078125 363.32332275 -1493.80078125 364.34332275 C-1494.46078125 364.34332275 -1495.12078125 364.34332275 -1495.80078125 364.34332275 C-1497.00706133 366.67546423 -1497.96625505 368.83974414 -1498.80078125 371.34332275 C-1499.46078125 371.34332275 -1500.12078125 371.34332275 -1500.80078125 371.34332275 C-1501.13078125 372.99332275 -1501.46078125 374.64332275 -1501.80078125 376.34332275 C-1502.46078125 376.34332275 -1503.12078125 376.34332275 -1503.80078125 376.34332275 C-1504.08953125 377.06519775 -1504.37828125 377.78707275 -1504.67578125 378.53082275 C-1505.71744792 381.13498942 -1506.75911458 383.73915609 -1507.80078125 386.34332275 C-1508.46078125 386.34332275 -1509.12078125 386.34332275 -1509.80078125 386.34332275 C-1509.92453125 387.23019775 -1510.04828125 388.11707275 -1510.17578125 389.03082275 C-1510.74490861 392.04719778 -1511.56692561 394.5465833 -1512.80078125 397.34332275 C-1513.46078125 397.34332275 -1514.12078125 397.34332275 -1514.80078125 397.34332275 C-1515.04828125 398.49832275 -1515.29578125 399.65332275 -1515.55078125 400.84332275 C-1516.71651971 406.11849894 -1518.04395998 411.35046292 -1519.39160156 416.581604 C-1524.28973178 435.83437019 -1523.32597434 457.3315697 -1513.36328125 474.87457275 C-1512.19354189 476.70893675 -1510.99966389 478.52787189 -1509.80078125 480.34332275 C-1509.80078125 481.00332275 -1509.80078125 481.66332275 -1509.80078125 482.34332275 C-1509.14078125 482.34332275 -1508.48078125 482.34332275 -1507.80078125 482.34332275 C-1507.80078125 483.00332275 -1507.80078125 483.66332275 -1507.80078125 484.34332275 C-1507.14078125 484.34332275 -1506.48078125 484.34332275 -1505.80078125 484.34332275 C-1504.29296875 486.02301025 -1504.29296875 486.02301025 -1502.67578125 488.21832275 C-1502.13695312 488.93761963 -1501.598125 489.6569165 -1501.04296875 490.39801025 C-1499.80078125 492.34332275 -1499.80078125 492.34332275 -1499.80078125 494.34332275 C-1499.14078125 494.34332275 -1498.48078125 494.34332275 -1497.80078125 494.34332275 C-1497.80078125 495.00332275 -1497.80078125 495.66332275 -1497.80078125 496.34332275 C-1497.14078125 496.34332275 -1496.48078125 496.34332275 -1495.80078125 496.34332275 C-1495.80078125 497.00332275 -1495.80078125 497.66332275 -1495.80078125 498.34332275 C-1495.14078125 498.34332275 -1494.48078125 498.34332275 -1493.80078125 498.34332275 C-1493.80078125 499.00332275 -1493.80078125 499.66332275 -1493.80078125 500.34332275 C-1493.14078125 500.34332275 -1492.48078125 500.34332275 -1491.80078125 500.34332275 C-1491.80078125 501.00332275 -1491.80078125 501.66332275 -1491.80078125 502.34332275 C-1491.14078125 502.34332275 -1490.48078125 502.34332275 -1489.80078125 502.34332275 C-1489.80078125 503.00332275 -1489.80078125 503.66332275 -1489.80078125 504.34332275 C-1488.77984375 504.68363525 -1488.77984375 504.68363525 -1487.73828125 505.03082275 C-1484.79798353 506.3445728 -1482.45652663 508.01750187 -1479.875 509.92144775 C-1475.73083649 512.76226794 -1471.24767458 515.01810946 -1466.80078125 517.34332275 C-1465.98480469 517.77773682 -1465.16882812 518.21215088 -1464.328125 518.659729 C-1458.69262508 521.58285823 -1452.92675409 523.92421951 -1446.9765625 526.13238525 C-1444.80813805 526.95921376 -1442.66556495 527.8563532 -1440.55078125 528.81207275 C-1436.00723841 530.77904479 -1431.26779785 531.96465162 -1426.48828125 533.21832275 C-1424.52587872 533.74114903 -1422.56364139 534.26459574 -1420.6015625 534.78863525 C-1419.13904053 535.177771 -1419.13904053 535.177771 -1417.64697266 535.57476807 C-1415.01788286 536.28469899 -1412.39841033 537.02045202 -1409.78125 537.77301025 C-1402.44574287 539.88055435 -1395.25131646 541.83647541 -1387.671875 542.8862915 C-1385.33635423 543.25806828 -1383.08774668 543.71903632 -1380.78613281 544.24908447 C-1364.02766674 547.99893642 -1347.06033103 550.21036621 -1329.98828125 551.90582275 C-1328.95832031 552.01004547 -1327.92835938 552.11426819 -1326.8671875 552.22164917 C-1256.6929915 559.30442762 -1186.39696809 559.73357699 -1115.9358902 560.317276 C-1098.43243691 560.46269619 -1080.92905931 560.61560821 -1063.42578125 560.78082275 C-1062.40970165 560.79034595 -1061.39362206 560.79986916 -1060.34675217 560.80968094 C-1027.57683526 561.11881386 -994.81467594 561.64435219 -962.05078125 562.34332275 C-960.56557354 562.3749608 -960.56557354 562.3749608 -959.05036163 562.40723801 C-945.30007198 562.7012186 -931.55027615 563.01433197 -917.80078125 563.34332275 C-916.916164 563.36442643 -916.03154675 563.38553011 -915.12012291 563.40727329 C-876.36288937 564.33416376 -876.36288937 564.33416376 -858.58203125 565.14019775 C-856.88284094 565.21468778 -855.18364217 565.28898522 -853.48443604 565.3631134 C-848.08959357 565.60023544 -842.69517564 565.84624871 -837.30078125 566.09332275 C-835.38106306 566.18067945 -833.46134463 566.26803084 -831.54162598 566.3553772 C-741.94221287 570.44595975 -652.12432624 575.12503112 -562.9487915 584.99755859 C-559.52428224 585.37369224 -556.0989365 585.7413873 -552.67333984 586.10748291 C-483.85571284 593.46454267 -415.45340671 602.2794729 -347.37554932 614.86743164 C-345.1065885 615.28680079 -342.83731173 615.70439204 -340.56787109 616.12115479 C-305.88889743 622.51495823 -271.64584206 630.81483895 -237.46484375 639.43707275 C-231.80846218 640.85977319 -226.1523366 642.26685813 -220.47265625 643.59332275 C-219.54348389 643.81109375 -218.61431152 644.02886475 -217.65698242 644.25323486 C-215.85334919 644.67455022 -214.04887557 645.09229137 -212.2434082 645.50567627 C-207.32286125 646.65505304 -202.56788977 648.0305938 -197.79077148 649.67608643 C-195.32281973 650.50358147 -192.83573624 651.13039645 -190.30078125 651.71832275 C-185.17675201 652.96648372 -180.11169691 654.36372318 -175.05078125 655.84332275 C-174.35404297 656.0448999 -173.65730469 656.24647705 -172.93945312 656.4541626 C-169.57521613 657.44669223 -166.29645241 658.51967056 -163.03515625 659.81207275 C-158.79884922 661.43971195 -154.46852386 662.44925717 -150.0625 663.51275635 C-144.23896712 664.99566494 -138.5290356 666.84476241 -132.80078125 668.65582275 C-125.05319835 671.09362911 -117.30380151 673.5089012 -109.49926758 675.75933838 C-101.98733799 677.93449478 -94.78560181 680.43292953 -87.60058594 683.52081299 C-80.06297856 686.7365188 -72.34752762 689.43669018 -64.61645508 692.14727783 C-60.15850838 693.7217776 -55.75880087 695.30637164 -51.4609375 697.28082275 C-45.84406602 699.84927523 -40.02258353 701.86418117 -34.21328735 703.9465332 C-22.88363639 708.01538293 -11.72627225 712.26981465 -0.80078125 717.34332275 C1.05327928 718.1768922 2.9074392 719.01024064 4.76171875 719.84332275 C9.73900474 722.11865349 14.69577804 724.43788818 19.65258789 726.75738525 C23.32520337 728.47447647 27.00542163 730.17231929 30.69921875 731.84332275 C36.84818369 734.62844217 42.96456857 737.48120372 49.07470703 740.35015869 C51.31980766 741.3996955 53.56989367 742.43805541 55.8203125 743.47613525 C65.64295994 748.0339318 75.12880127 752.95458812 84.50195312 758.37359619 C86.79253584 759.68231232 89.11940982 760.91856397 91.44921875 762.15582275 C115.51899154 775.2681876 115.51899154 775.2681876 125.421875 783.9175415 C127.25006079 785.55302632 127.25006079 785.55302632 130.19921875 786.34332275 C130.19921875 787.00332275 130.19921875 787.66332275 130.19921875 788.34332275 C130.75609375 788.61144775 131.31296875 788.87957275 131.88671875 789.15582275 C134.41147209 790.45231771 136.83636359 791.76808598 139.19921875 793.34332275 C139.19921875 794.00332275 139.19921875 794.66332275 139.19921875 795.34332275 C139.92753906 795.58953369 140.65585938 795.83574463 141.40625 796.0894165 C144.48818297 797.47305354 146.42695588 799.10475426 148.88671875 801.40582275 C151.81353676 804.20625388 151.81353676 804.20625388 155.19921875 806.34332275 C155.19921875 807.00332275 155.19921875 807.66332275 155.19921875 808.34332275 C155.79734375 808.63207275 156.39546875 808.92082275 157.01171875 809.21832275 C159.19921875 810.34332275 159.19921875 810.34332275 162.19921875 812.34332275 C162.19921875 813.00332275 162.19921875 813.66332275 162.19921875 814.34332275 C163.84921875 815.00332275 165.49921875 815.66332275 167.19921875 816.34332275 C167.19921875 817.00332275 167.19921875 817.66332275 167.19921875 818.34332275 C167.85921875 818.34332275 168.51921875 818.34332275 169.19921875 818.34332275 C169.19921875 819.00332275 169.19921875 819.66332275 169.19921875 820.34332275 C169.85921875 820.34332275 170.51921875 820.34332275 171.19921875 820.34332275 C171.19921875 821.00332275 171.19921875 821.66332275 171.19921875 822.34332275 C171.75609375 822.57019775 172.31296875 822.79707275 172.88671875 823.03082275 C177.16233752 825.4575253 180.33838694 828.77582648 182.19921875 833.34332275 C182.85921875 833.34332275 183.51921875 833.34332275 184.19921875 833.34332275 C184.19921875 834.00332275 184.19921875 834.66332275 184.19921875 835.34332275 C184.85921875 835.34332275 185.51921875 835.34332275 186.19921875 835.34332275 C186.19921875 836.00332275 186.19921875 836.66332275 186.19921875 837.34332275 C186.85921875 837.34332275 187.51921875 837.34332275 188.19921875 837.34332275 C188.19921875 838.00332275 188.19921875 838.66332275 188.19921875 839.34332275 C188.85921875 839.34332275 189.51921875 839.34332275 190.19921875 839.34332275 C190.19921875 840.00332275 190.19921875 840.66332275 190.19921875 841.34332275 C190.85921875 841.34332275 191.51921875 841.34332275 192.19921875 841.34332275 C193.78455577 843.05665029 195.2946309 844.84021323 196.76171875 846.65582275 C197.56738281 847.64195557 198.37304688 848.62808838 199.203125 849.644104 C201.19921875 852.34332275 201.19921875 852.34332275 202.19921875 855.34332275 C202.85921875 855.34332275 203.51921875 855.34332275 204.19921875 855.34332275 C204.85921875 856.99332275 205.51921875 858.64332275 206.19921875 860.34332275 C206.85921875 860.34332275 207.51921875 860.34332275 208.19921875 860.34332275 C208.19921875 861.00332275 208.19921875 861.66332275 208.19921875 862.34332275 C208.85921875 862.34332275 209.51921875 862.34332275 210.19921875 862.34332275 C210.46734375 862.94144775 210.73546875 863.53957275 211.01171875 864.15582275 C212.06491006 866.36061001 212.06491006 866.36061001 213.69921875 867.78082275 C215.59825187 869.75898226 216.29820906 871.77891057 217.19921875 874.34332275 C217.85921875 874.34332275 218.51921875 874.34332275 219.19921875 874.34332275 C220.43261719 876.00469971 220.43261719 876.00469971 221.80859375 878.331604 C222.31358398 879.17859863 222.81857422 880.02559326 223.33886719 880.89825439 C223.8702832 881.80825195 224.40169922 882.71824951 224.94921875 883.65582275 C225.48836914 884.56904297 226.02751953 885.48226318 226.58300781 886.42315674 C228.13211154 889.05733508 229.668675 891.6983257 231.19921875 894.34332275 C231.57820313 894.99623291 231.9571875 895.64914307 232.34765625 896.32183838 C237.19921875 904.73444775 237.19921875 904.73444775 237.19921875 908.34332275 C237.85921875 908.34332275 238.51921875 908.34332275 239.19921875 908.34332275 C240.45586853 911.24932537 241.19921875 913.1393686 241.19921875 916.34332275 C241.85921875 916.34332275 242.51921875 916.34332275 243.19921875 916.34332275 C245.1236637 921.24904212 247.04405192 926.15632434 248.9609375 931.06500244 C249.61155777 932.72948454 250.26322327 934.39355851 250.91601562 936.05718994 C255.97740808 948.95908299 260.88422985 961.66965038 263.69921875 975.28082275 C263.90716064 976.2680835 264.11510254 977.25534424 264.3293457 978.27252197 C264.96098624 981.29446008 265.58036269 984.31874467 266.19921875 987.34332275 C266.3904834 988.25388428 266.58174805 989.1644458 266.77880859 990.1026001 C272.66996194 1018.215948 275.49968238 1048.06183926 269.19921875 1076.34332275 C269.05468262 1077.00042236 268.91014648 1077.65752197 268.76123047 1078.33453369 C265.30381467 1093.53491103 259.45403314 1107.60639609 252.19921875 1121.34332275 C251.53921875 1121.34332275 250.87921875 1121.34332275 250.19921875 1121.34332275 C250.09609375 1122.06519775 249.99296875 1122.78707275 249.88671875 1123.53082275 C249.13127928 1126.62125697 248.0439056 1128.76076117 246.19921875 1131.34332275 C245.53921875 1131.34332275 244.87921875 1131.34332275 244.19921875 1131.34332275 C244.19921875 1132.33332275 244.19921875 1133.32332275 244.19921875 1134.34332275 C243.53921875 1134.34332275 242.87921875 1134.34332275 242.19921875 1134.34332275 C242.10511719 1134.884729 242.01101563 1135.42613525 241.9140625 1135.98394775 C240.98782622 1139.04103363 239.47468315 1141.40101281 237.76171875 1144.09332275 C236.83552734 1145.57058838 236.83552734 1145.57058838 235.890625 1147.07769775 C235.33246094 1147.825354 234.77429687 1148.57301025 234.19921875 1149.34332275 C233.53921875 1149.34332275 232.87921875 1149.34332275 232.19921875 1149.34332275 C231.79703125 1150.45707275 231.79703125 1150.45707275 231.38671875 1151.59332275 C230.24645124 1154.23394224 229.10541569 1156.19885119 227.19921875 1158.34332275 C226.53921875 1158.34332275 225.87921875 1158.34332275 225.19921875 1158.34332275 C224.98394531 1158.87699463 224.76867188 1159.4106665 224.546875 1159.96051025 C222.70345031 1163.21989883 220.19908502 1165.77144046 217.63671875 1168.46832275 C214.01287968 1172.10735682 214.01287968 1172.10735682 211.19921875 1176.34332275 C210.53921875 1176.34332275 209.87921875 1176.34332275 209.19921875 1176.34332275 C209.19921875 1177.00332275 209.19921875 1177.66332275 209.19921875 1178.34332275 C208.53921875 1178.34332275 207.87921875 1178.34332275 207.19921875 1178.34332275 C207.19921875 1179.00332275 207.19921875 1179.66332275 207.19921875 1180.34332275 C206.53921875 1180.34332275 205.87921875 1180.34332275 205.19921875 1180.34332275 C205.19921875 1181.00332275 205.19921875 1181.66332275 205.19921875 1182.34332275 C203.66015625 1183.85894775 203.66015625 1183.85894775 201.57421875 1185.59332275 C198.85874116 1187.88992348 196.28659611 1190.2148305 193.82421875 1192.78082275 C191.19921875 1195.34332275 191.19921875 1195.34332275 189.19921875 1195.34332275 C189.19921875 1196.00332275 189.19921875 1196.66332275 189.19921875 1197.34332275 C188.53921875 1197.34332275 187.87921875 1197.34332275 187.19921875 1197.34332275 C187.19921875 1198.00332275 187.19921875 1198.66332275 187.19921875 1199.34332275 C186.53921875 1199.34332275 185.87921875 1199.34332275 185.19921875 1199.34332275 C185.19921875 1200.00332275 185.19921875 1200.66332275 185.19921875 1201.34332275 C180.72863051 1205.34332275 180.72863051 1205.34332275 178.19921875 1205.34332275 C178.19921875 1206.00332275 178.19921875 1206.66332275 178.19921875 1207.34332275 C177.53921875 1207.34332275 176.87921875 1207.34332275 176.19921875 1207.34332275 C176.19921875 1208.00332275 176.19921875 1208.66332275 176.19921875 1209.34332275 C175.53921875 1209.34332275 174.87921875 1209.34332275 174.19921875 1209.34332275 C174.19921875 1210.00332275 174.19921875 1210.66332275 174.19921875 1211.34332275 C172.7734375 1212.63238525 172.7734375 1212.63238525 170.88671875 1213.96832275 C170.27183594 1214.41433838 169.65695312 1214.860354 169.0234375 1215.31988525 C167.19921875 1216.34332275 167.19921875 1216.34332275 164.19921875 1216.34332275 C164.19921875 1217.00332275 164.19921875 1217.66332275 164.19921875 1218.34332275 C159.81460337 1221.34332275 159.81460337 1221.34332275 157.19921875 1221.34332275 C157.19921875 1222.00332275 157.19921875 1222.66332275 157.19921875 1223.34332275 C154.29372993 1225.3850176 152.79779829 1226.34332275 149.19921875 1226.34332275 C149.19921875 1227.00332275 149.19921875 1227.66332275 149.19921875 1228.34332275 C147.08203125 1229.85113525 147.08203125 1229.85113525 144.32421875 1231.46832275 C143.41929688 1232.00715088 142.514375 1232.545979 141.58203125 1233.10113525 C139.19921875 1234.34332275 139.19921875 1234.34332275 137.19921875 1234.34332275 C137.19921875 1235.00332275 137.19921875 1235.66332275 137.19921875 1236.34332275 C136.20921875 1236.34332275 135.21921875 1236.34332275 134.19921875 1236.34332275 C134.19921875 1237.00332275 134.19921875 1237.66332275 134.19921875 1238.34332275 C132.54921875 1238.67332275 130.89921875 1239.00332275 129.19921875 1239.34332275 C129.19921875 1240.00332275 129.19921875 1240.66332275 129.19921875 1241.34332275 C127.06340907 1242.52988369 124.9272595 1243.71575283 122.7890625 1244.89801025 C121.08627682 1245.84828281 119.39064532 1246.81151081 117.703125 1247.78863525 C116.91808594 1248.23980713 116.13304687 1248.690979 115.32421875 1249.15582275 C114.24527344 1249.78424072 114.24527344 1249.78424072 113.14453125 1250.425354 C111.19921875 1251.34332275 111.19921875 1251.34332275 108.19921875 1251.34332275 C108.19921875 1252.00332275 108.19921875 1252.66332275 108.19921875 1253.34332275 C107.02359375 1253.85894775 105.84796875 1254.37457275 104.63671875 1254.90582275 C101.5565072 1256.26502722 98.50462867 1257.6694701 95.47265625 1259.13238525 C94.81982666 1259.44490234 94.16699707 1259.75741943 93.49438477 1260.07940674 C92.19500842 1260.70293458 90.8984858 1261.33245264 89.60522461 1261.96856689 C85.8060607 1263.7839063 82.38235624 1264.86139447 78.19921875 1265.34332275 C78.19921875 1266.00332275 78.19921875 1266.66332275 78.19921875 1267.34332275 C77.1834375 1267.71843994 76.16765625 1268.09355713 75.12109375 1268.4800415 C73.73042278 1268.9968449 72.33980045 1269.5137792 70.94921875 1270.03082275 C70.28664063 1270.2751001 69.6240625 1270.51937744 68.94140625 1270.77105713 C64.80289234 1272.3132392 60.727248 1273.95960382 56.6640625 1275.690979 C49.22238623 1278.80799434 41.63926471 1281.47589943 34.01171875 1284.09332275 C33.26120239 1284.35177979 32.51068604 1284.61023682 31.73742676 1284.87652588 C16.62503826 1290.05800715 1.33970642 1294.38270773 -14.12304688 1298.38238525 C-16.51154591 1299.00646466 -18.8960232 1299.64622272 -21.27539062 1300.30426025 C-39.96927985 1305.459773 -59.00315605 1309.1173764 -78.11328125 1312.34332275 C-79.12388611 1312.51418396 -80.13449097 1312.68504517 -81.17572021 1312.86108398 C-145.28074316 1323.62613688 -210.61076028 1327.3450556 -275.39282227 1331.87489319 C-279.36235483 1332.15306733 -283.33163322 1332.43471798 -287.30078125 1332.71832275 C-288.09911377 1332.77519257 -288.89744629 1332.83206238 -289.7199707 1332.89065552 C-300.93872441 1333.6961807 -312.14410977 1334.62207348 -323.34765625 1335.61676025 C-357.60253401 1338.65512774 -391.8686194 1341.39700867 -426.17578125 1343.78082275 C-427.73714499 1343.88932493 -427.73714499 1343.88932493 -429.33005142 1344.00001907 C-470.82759032 1346.87582788 -512.34974511 1349.3339094 -553.88159847 1351.65549564 C-600.28516063 1354.25064478 -646.61818821 1357.46723151 -692.889328 1361.84763336 C-695.57074566 1362.10111844 -698.25233267 1362.35274688 -700.93395996 1362.60400391 C-754.71487166 1367.64884414 -808.47228077 1373.19110691 -862.06164551 1379.99554443 C-863.87459659 1380.22572838 -865.68766501 1380.45499016 -867.50085449 1380.68328857 C-900.4608672 1384.83470036 -933.20273946 1390.21845248 -965.96374512 1395.70220947 C-972.20272928 1396.74465355 -978.44319948 1397.77810977 -984.68359375 1398.81207275 C-994.90145398 1400.50600539 -1005.11756578 1402.21009382 -1015.33201599 1403.92446899 C-1020.82414646 1404.846053 -1026.31746774 1405.75952721 -1031.8125 1406.66363525 C-1078.75824795 1414.465086 -1126.33397062 1423.16181231 -1172.33496094 1435.42095947 C-1176.79161319 1436.60701415 -1181.25320348 1437.773851 -1185.71484375 1438.940979 C-1191.27619837 1440.39636041 -1196.837358 1441.85245064 -1202.3972168 1443.3135376 C-1212.46585063 1445.95822158 -1222.54149585 1448.56293142 -1232.64697266 1451.06378174 C-1241.47112968 1453.25074636 -1250.28125588 1455.49152427 -1259.08877563 1457.74441528 C-1260.7764016 1458.17588262 -1262.46419905 1458.60667998 -1264.15219116 1459.03671265 C-1280.77265823 1463.27216931 -1297.2927249 1467.80081843 -1313.70849609 1472.77325439 C-1315.82771066 1473.41396442 -1317.94896008 1474.04762253 -1320.0703125 1474.68121338 C-1328.40435843 1477.17718542 -1328.40435843 1477.17718542 -1336.5390625 1480.24957275 C-1344.79554966 1483.69164346 -1353.45831994 1486.11535235 -1361.98828125 1488.78082275 C-1364.68118899 1489.6253097 -1367.37372606 1490.47091362 -1370.06535339 1491.31947327 C-1371.83963094 1491.87611276 -1373.61579511 1492.42677277 -1375.39375305 1492.97154236 C-1379.13499313 1494.12729241 -1382.73399191 1495.31476064 -1386.33862305 1496.85626221 C-1399.22819308 1502.24051298 -1413.39665631 1500.90639179 -1427.10803223 1500.68664551 C-1430.68840717 1500.63484076 -1434.26896506 1500.61252294 -1437.84960938 1500.58746338 C-1444.83377447 1500.53436834 -1451.81722477 1500.44940904 -1458.80078125 1500.34332275 C-1455.87274198 1498.06876738 -1453.47907537 1496.71501434 -1449.92578125 1495.61676025 C-1448.95632568 1495.3122998 -1447.98687012 1495.00783936 -1446.98803711 1494.69415283 C-1445.93624268 1494.37212891 -1444.88444824 1494.05010498 -1443.80078125 1493.71832275 C-1441.51029866 1493.00125166 -1439.21993827 1492.28379017 -1436.9296875 1491.565979 C-1435.15295654 1491.01321289 -1435.15295654 1491.01321289 -1433.34033203 1490.44927979 C-1427.79596149 1488.71690301 -1422.26716607 1486.93688831 -1416.73828125 1485.15582275 C-1415.60672607 1484.79222656 -1414.4751709 1484.42863037 -1413.30932617 1484.05401611 C-1403.61096152 1480.93496724 -1393.92252824 1477.7856648 -1384.23486328 1474.63357544 C-1379.0755189 1472.95533508 -1373.91542796 1471.27939116 -1368.75531006 1469.60353088 C-1365.19454063 1468.44690858 -1361.63423574 1467.2889499 -1358.07519531 1466.12701416 C-1333.76132994 1458.1891887 -1309.35027461 1451.04936579 -1284.46411133 1445.1585083 C-1276.01754981 1443.15481464 -1267.64814861 1440.98017114 -1259.32316589 1438.5145874 C-1253.82710224 1436.89851621 -1248.3133397 1435.42682671 -1242.75 1434.06207275 C-1240.98629552 1433.62543983 -1239.22271047 1433.18832428 -1237.45922852 1432.75079346 C-1236.07684494 1432.40801865 -1236.07684494 1432.40801865 -1234.66653442 1432.05831909 C-1230.7394161 1431.07851551 -1226.81736562 1430.07923482 -1222.89532471 1429.07933044 C-1197.91001147 1422.71072612 -1172.9266891 1416.63268075 -1147.64952087 1411.53614807 C-1142.82040388 1410.5606228 -1138.01134631 1409.51495318 -1133.20629883 1408.42803955 C-1102.01579592 1401.3946854 -1070.35085496 1396.32309223 -1038.82917786 1391.03114319 C-1030.82040706 1389.68599508 -1022.81410361 1388.32663394 -1014.8085556 1386.96247101 C-998.95309687 1384.26073576 -983.09442989 1381.57857721 -967.23187256 1378.91882324 C-965.10323405 1378.56178451 -962.97467793 1378.2042537 -960.84625244 1377.84594727 C-938.97650199 1374.16483071 -917.03819684 1371.10636973 -895.05078125 1368.21832275 C-893.79841675 1368.05369537 -892.54605225 1367.88906799 -891.2557373 1367.7194519 C-857.40718142 1363.28769763 -823.5033833 1359.49960483 -789.55078125 1355.96832275 C-787.65957427 1355.77128114 -785.76836947 1355.57421871 -783.87716675 1355.37713623 C-765.13182144 1353.42492533 -746.38455955 1351.49094998 -727.6328125 1349.60113525 C-726.50574387 1349.48696259 -725.37867523 1349.37278992 -724.217453 1349.25515747 C-700.70829973 1346.901066 -677.17683073 1344.79894882 -653.625 1342.92144775 C-652.96490527 1342.8687183 -652.30481054 1342.81598885 -651.62471294 1342.76166153 C-620.94331603 1340.31428759 -590.23513696 1338.45917966 -559.50714469 1336.7118578 C-546.94055428 1335.99644151 -534.37528185 1335.25801246 -521.80985832 1334.52243805 C-518.89074141 1334.35155598 -515.97160888 1334.1809449 -513.05246162 1334.01058197 C-479.8603226 1332.07300697 -446.68286236 1329.94923345 -413.51690674 1327.60577393 C-409.83152952 1327.34549435 -406.14600214 1327.08742929 -402.46044922 1326.82965088 C-377.1044191 1325.04990438 -351.78248746 1323.02005667 -326.46829224 1320.72271729 C-303.46551003 1318.64556668 -280.438347 1316.96261648 -257.40261841 1315.29830933 C-204.97617727 1311.50884856 -152.74114624 1307.70389314 -100.80078125 1299.34332275 C-100.0083905 1299.21612854 -99.21599976 1299.08893433 -98.39959717 1298.95788574 C-76.81618101 1295.46690208 -55.83320287 1290.22291496 -34.80078125 1284.34332275 C-32.66019937 1283.75332254 -30.51957837 1283.16346423 -28.37890625 1282.5737915 C-20.59719137 1280.40924397 -12.92563082 1278.16048202 -5.37890625 1275.26519775 C-2.32607367 1274.17357883 0.75960556 1273.32372143 3.88671875 1272.46832275 C16.0093684 1269.08247866 27.63736835 1264.2830607 39.19921875 1259.34332275 C40.33359375 1258.86894775 41.46796875 1258.39457275 42.63671875 1257.90582275 C46.01152503 1256.42564456 49.35523441 1254.891675 52.69921875 1253.34332275 C65.68429338 1247.34332275 65.68429338 1247.34332275 69.19921875 1247.34332275 C69.19921875 1246.68332275 69.19921875 1246.02332275 69.19921875 1245.34332275 C72.10522136 1244.08667298 73.99526459 1243.34332275 77.19921875 1243.34332275 C77.19921875 1242.68332275 77.19921875 1242.02332275 77.19921875 1241.34332275 C78.79954012 1240.5026286 80.40463046 1239.67100771 82.01171875 1238.84332275 C83.35169922 1238.147229 83.35169922 1238.147229 84.71875 1237.43707275 C87.19921875 1236.34332275 87.19921875 1236.34332275 90.19921875 1236.34332275 C90.19921875 1235.68332275 90.19921875 1235.02332275 90.19921875 1234.34332275 C91.84921875 1234.01332275 93.49921875 1233.68332275 95.19921875 1233.34332275 C95.19921875 1232.68332275 95.19921875 1232.02332275 95.19921875 1231.34332275 C96.63623047 1230.19830322 96.63623047 1230.19830322 98.62890625 1228.96051025 C99.34175781 1228.51578369 100.05460937 1228.07105713 100.7890625 1227.612854 C101.54316406 1227.15265869 102.29726562 1226.69246338 103.07421875 1226.21832275 C103.82058594 1225.75039307 104.56695313 1225.28246338 105.3359375 1224.800354 C110.92967611 1221.34332275 110.92967611 1221.34332275 113.19921875 1221.34332275 C113.19921875 1220.68332275 113.19921875 1220.02332275 113.19921875 1219.34332275 C115.63054929 1217.70468879 118.0469341 1216.19410941 120.57421875 1214.71832275 C121.27289062 1214.29808838 121.9715625 1213.877854 122.69140625 1213.44488525 C127.92781047 1210.34332275 127.92781047 1210.34332275 130.19921875 1210.34332275 C130.19921875 1209.68332275 130.19921875 1209.02332275 130.19921875 1208.34332275 C131.66796875 1207.081604 131.66796875 1207.081604 133.69921875 1205.65582275 C137.54571446 1202.88388189 141.04834934 1199.87260894 144.53515625 1196.66363525 C146.19921875 1195.34332275 146.19921875 1195.34332275 148.19921875 1195.34332275 C148.19921875 1194.68332275 148.19921875 1194.02332275 148.19921875 1193.34332275 C148.85921875 1193.34332275 149.51921875 1193.34332275 150.19921875 1193.34332275 C150.19921875 1192.68332275 150.19921875 1192.02332275 150.19921875 1191.34332275 C151.80859375 1189.68707275 151.80859375 1189.68707275 153.94921875 1187.84332275 C154.99335938 1186.9306665 154.99335938 1186.9306665 156.05859375 1185.99957275 C158.04382667 1184.46355313 159.9179392 1183.37092616 162.19921875 1182.34332275 C162.19921875 1181.68332275 162.19921875 1181.02332275 162.19921875 1180.34332275 C162.85921875 1180.34332275 163.51921875 1180.34332275 164.19921875 1180.34332275 C164.19921875 1179.68332275 164.19921875 1179.02332275 164.19921875 1178.34332275 C164.85921875 1178.34332275 165.51921875 1178.34332275 166.19921875 1178.34332275 C166.85921875 1177.02332275 167.51921875 1175.70332275 168.19921875 1174.34332275 C168.85921875 1174.34332275 169.51921875 1174.34332275 170.19921875 1174.34332275 C170.19921875 1173.68332275 170.19921875 1173.02332275 170.19921875 1172.34332275 C170.85921875 1172.34332275 171.51921875 1172.34332275 172.19921875 1172.34332275 C172.19921875 1171.68332275 172.19921875 1171.02332275 172.19921875 1170.34332275 C173.57421875 1168.71832275 173.57421875 1168.71832275 175.19921875 1167.34332275 C175.85921875 1167.34332275 176.51921875 1167.34332275 177.19921875 1167.34332275 C177.85921875 1165.69332275 178.51921875 1164.04332275 179.19921875 1162.34332275 C179.85921875 1162.34332275 180.51921875 1162.34332275 181.19921875 1162.34332275 C181.19921875 1161.68332275 181.19921875 1161.02332275 181.19921875 1160.34332275 C181.85921875 1160.34332275 182.51921875 1160.34332275 183.19921875 1160.34332275 C183.45960937 1159.76324463 183.72 1159.1831665 183.98828125 1158.58551025 C185.27887044 1156.19583865 186.73860423 1154.46425295 188.57421875 1152.46832275 C190.77869573 1150.02094082 192.75994743 1147.63293595 194.51171875 1144.84332275 C195.06859375 1144.01832275 195.62546875 1143.19332275 196.19921875 1142.34332275 C196.85921875 1142.34332275 197.51921875 1142.34332275 198.19921875 1142.34332275 C198.31394531 1141.770979 198.42867187 1141.19863525 198.546875 1140.60894775 C199.26104231 1138.12860619 200.27229747 1136.27963578 201.63671875 1134.09332275 C202.06855469 1133.3869165 202.50039062 1132.68051025 202.9453125 1131.95269775 C203.35910156 1131.421604 203.77289062 1130.89051025 204.19921875 1130.34332275 C204.85921875 1130.34332275 205.51921875 1130.34332275 206.19921875 1130.34332275 C206.31136719 1129.770979 206.42351562 1129.19863525 206.5390625 1128.60894775 C207.27553493 1126.08140923 208.34070195 1124.30809554 209.76171875 1122.09332275 C220.68725593 1104.16289571 228.07790645 1085.13606471 231.19921875 1064.34332275 C231.36977783 1063.43324463 231.54033691 1062.5231665 231.71606445 1061.58551025 C232.66967173 1055.1863669 232.49015403 1048.67819087 232.51171875 1042.21832275 C232.51466949 1041.4447644 232.51762024 1040.67120605 232.5206604 1039.87420654 C232.53371433 1024.74489956 230.90178494 1010.24248446 228.19921875 995.34332275 C227.957235 993.90210049 227.71619228 992.46071953 227.4765625 991.019104 C224.60377881 975.10697875 219.46790996 959.73645214 214.07421875 944.53082275 C213.65454834 943.34464355 213.23487793 942.15846436 212.80249023 940.93634033 C210.85371378 935.53650134 208.84547595 930.29887122 206.17333984 925.21514893 C205.1102434 923.17235183 204.14688726 921.09868279 203.19140625 919.003479 C199.03568529 909.95735101 194.61236226 901.25576761 189.38623047 892.77520752 C187.46938134 889.64332958 185.95789817 886.93574844 185.19921875 883.34332275 C184.53921875 883.34332275 183.87921875 883.34332275 183.19921875 883.34332275 C180.19921875 878.95870737 180.19921875 878.95870737 180.19921875 876.34332275 C179.53921875 876.34332275 178.87921875 876.34332275 178.19921875 876.34332275 C176.69140625 874.66363525 176.69140625 874.66363525 175.07421875 872.46832275 C174.53539062 871.74902588 173.9965625 871.029729 173.44140625 870.28863525 C172.19921875 868.34332275 172.19921875 868.34332275 172.19921875 866.34332275 C171.53921875 866.34332275 170.87921875 866.34332275 170.19921875 866.34332275 C168.7890625 864.72613525 168.7890625 864.72613525 167.13671875 862.46832275 C163.7171398 857.92085748 160.00253984 853.75788798 156.1171875 849.6050415 C154.38799313 847.56593043 153.2543307 845.78292023 152.19921875 843.34332275 C151.53921875 843.34332275 150.87921875 843.34332275 150.19921875 843.34332275 C148.68359375 841.769104 148.68359375 841.769104 146.94921875 839.65582275 C144.69846147 836.98983142 142.4987233 834.63322184 139.76171875 832.46832275 C138.91609375 831.76707275 138.07046875 831.06582275 137.19921875 830.34332275 C137.19921875 829.68332275 137.19921875 829.02332275 137.19921875 828.34332275 C136.6165625 828.07519775 136.03390625 827.80707275 135.43359375 827.53082275 C133.17135274 826.32851285 131.39345557 825.00506363 129.44921875 823.34332275 C128.835625 822.82769775 128.22203125 822.31207275 127.58984375 821.78082275 C126.19921875 820.34332275 126.19921875 820.34332275 126.19921875 818.34332275 C125.53921875 818.34332275 124.87921875 818.34332275 124.19921875 818.34332275 C124.19921875 817.68332275 124.19921875 817.02332275 124.19921875 816.34332275 C122.54921875 815.68332275 120.89921875 815.02332275 119.19921875 814.34332275 C119.19921875 813.68332275 119.19921875 813.02332275 119.19921875 812.34332275 C118.37164063 811.956604 118.37164063 811.956604 117.52734375 811.56207275 C114.856077 810.1636915 112.43069966 808.5556897 109.94921875 806.84332275 C109.0571875 806.23488525 108.16515625 805.62644775 107.24609375 804.99957275 C106.570625 804.45301025 105.89515625 803.90644775 105.19921875 803.34332275 C105.19921875 802.68332275 105.19921875 802.02332275 105.19921875 801.34332275 C104.41546875 801.03394775 103.63171875 800.72457275 102.82421875 800.40582275 C100.19921875 799.34332275 100.19921875 799.34332275 98.19921875 798.34332275 C98.19921875 797.68332275 98.19921875 797.02332275 98.19921875 796.34332275 C96.54921875 795.68332275 94.89921875 795.02332275 93.19921875 794.34332275 C93.19921875 793.68332275 93.19921875 793.02332275 93.19921875 792.34332275 C91.54921875 792.01332275 89.89921875 791.68332275 88.19921875 791.34332275 C88.19921875 790.68332275 88.19921875 790.02332275 88.19921875 789.34332275 C87.41546875 789.03394775 86.63171875 788.72457275 85.82421875 788.40582275 C83.19921875 787.34332275 83.19921875 787.34332275 81.19921875 786.34332275 C81.19921875 785.68332275 81.19921875 785.02332275 81.19921875 784.34332275 C80.62171875 784.21957275 80.04421875 784.09582275 79.44921875 783.96832275 C77.17586108 783.33683451 75.27386585 782.45474085 73.19921875 781.34332275 C73.19921875 780.68332275 73.19921875 780.02332275 73.19921875 779.34332275 C71.54921875 779.01332275 69.89921875 778.68332275 68.19921875 778.34332275 C68.19921875 777.68332275 68.19921875 777.02332275 68.19921875 776.34332275 C66.54921875 776.01332275 64.89921875 775.68332275 63.19921875 775.34332275 C63.19921875 774.68332275 63.19921875 774.02332275 63.19921875 773.34332275 C62.49796875 773.24019775 61.79671875 773.13707275 61.07421875 773.03082275 C57.80784228 772.24973273 55.15203355 770.92273532 52.19921875 769.34332275 C52.19921875 768.68332275 52.19921875 768.02332275 52.19921875 767.34332275 C51.54179688 767.26082275 50.884375 767.17832275 50.20703125 767.09332275 C46.16873359 766.08637061 42.75174238 764.2591183 39.07421875 762.34332275 C37.65584483 761.61241295 36.23660645 760.88317762 34.81640625 760.15582275 C34.19362793 759.83226807 33.57084961 759.50871338 32.92919922 759.175354 C31.02777571 758.21606259 31.02777571 758.21606259 28.19921875 757.34332275 C28.19921875 756.68332275 28.19921875 756.02332275 28.19921875 755.34332275 C27.49023438 755.22988525 26.78125 755.11644775 26.05078125 754.99957275 C22.97388359 754.2914648 20.424616 753.19392421 17.57421875 751.84332275 C14.78275161 750.52789166 12.12869818 749.3198159 9.19921875 748.34332275 C9.19921875 747.68332275 9.19921875 747.02332275 9.19921875 746.34332275 C8.47992187 746.224729 7.760625 746.10613525 7.01953125 745.98394775 C4.12119161 745.32559914 1.75881786 744.35949188 -0.92578125 743.09332275 C-1.88742187 742.644729 -2.8490625 742.19613525 -3.83984375 741.73394775 C-4.81695313 741.2750415 -5.7940625 740.81613525 -6.80078125 740.34332275 C-8.63287538 739.50726853 -10.46618984 738.67388276 -12.30078125 737.84332275 C-15.07475898 736.58278302 -17.84843606 735.32160747 -20.62109375 734.0581665 C-22.00941406 733.42588135 -22.00941406 733.42588135 -23.42578125 732.78082275 C-24.24304687 732.40828369 -25.0603125 732.03574463 -25.90234375 731.6519165 C-26.85882812 731.22008057 -27.8153125 730.78824463 -28.80078125 730.34332275 C-29.43121338 730.05658691 -30.06164551 729.76985107 -30.71118164 729.47442627 C-37.06809866 726.61047844 -43.51396751 723.99158842 -49.98828125 721.40582275 C-51.02275391 720.98881104 -52.05722656 720.57179932 -53.12304688 720.14215088 C-59.69349728 717.51315804 -66.31026466 715.07002239 -72.98217773 712.71173096 C-79.6375336 710.34319022 -86.23581707 707.81831262 -92.84106445 705.31427002 C-95.23117258 704.40851665 -97.6223666 703.50567569 -100.01367188 702.60308838 C-101.58738215 702.00776198 -103.16095088 701.41206128 -104.734375 700.815979 C-105.5076564 700.5230899 -106.28093781 700.23020081 -107.07765198 699.92843628 C-111.27808923 698.32946384 -115.45152321 696.67943631 -119.60797119 694.96965027 C-127.9337855 691.55460917 -136.36699374 688.8794168 -144.98828125 686.34332275 C-146.44395761 685.90955678 -147.89944066 685.47514158 -149.35473633 685.0401001 C-152.2081148 684.18810809 -155.06250175 683.33965516 -157.91796875 682.49468994 C-162.12734074 681.24835248 -166.33003244 679.98032612 -170.53222656 678.71002197 C-177.87675566 676.49206179 -185.23870473 674.34984267 -192.62109375 672.2612915 C-195.63294195 671.39177759 -198.62278572 670.4708061 -201.61328125 669.53082275 C-229.26655683 660.9966779 -257.44742364 654.18371623 -285.61328125 647.5737915 C-289.47417181 646.66512488 -293.32583395 645.72305814 -297.17578125 644.769104 C-332.83755091 635.96186481 -368.82195399 629.14503213 -405.00054932 622.83355713 C-407.56150582 622.38521251 -410.12153643 621.93206166 -412.68115234 621.47613525 C-462.02426662 612.69777537 -511.95347197 607.34802173 -561.74438477 601.79644775 C-565.52857513 601.37434363 -569.31214654 600.94685328 -573.09570312 600.519104 C-662.8372361 590.43034041 -753.32274334 585.71579611 -843.50250244 581.49829102 C-846.60252671 581.35263766 -849.70240188 581.20417825 -852.80224609 581.05474854 C-879.66677029 579.76737085 -906.54053202 578.97318525 -933.42578125 578.28082275 C-934.21155296 578.2604533 -934.99732468 578.24008385 -935.80690765 578.21909714 C-947.2385783 577.92315679 -958.6707114 577.65350214 -970.10346222 577.40281296 C-972.81124749 577.34309192 -975.51899617 577.28187237 -978.22674561 577.22055054 C-1008.69598014 576.53856423 -1039.16608578 576.19089899 -1069.64113569 575.90750432 C-1072.76802822 575.87842032 -1075.89491861 575.84911395 -1079.02180862 575.81976128 C-1098.42431206 575.63791851 -1117.82684418 575.4595181 -1137.22949219 575.29376221 C-1232.2378891 574.47886923 -1232.2378891 574.47886923 -1277.80078125 572.34332275 C-1278.61794113 572.30575363 -1279.43510101 572.26818451 -1280.27702332 572.22947693 C-1352.85412819 568.89064984 -1429.15494297 561.19787751 -1495.80078125 530.34332275 C-1495.80078125 529.68332275 -1495.80078125 529.02332275 -1495.80078125 528.34332275 C-1497.45078125 528.01332275 -1499.10078125 527.68332275 -1500.80078125 527.34332275 C-1500.80078125 526.68332275 -1500.80078125 526.02332275 -1500.80078125 525.34332275 C-1501.46078125 525.28144775 -1502.12078125 525.21957275 -1502.80078125 525.15582275 C-1506.92244875 524.03953781 -1510.45828627 522.0057071 -1513.80078125 519.34332275 C-1513.80078125 518.68332275 -1513.80078125 518.02332275 -1513.80078125 517.34332275 C-1514.33703125 517.26082275 -1514.87328125 517.17832275 -1515.42578125 517.09332275 C-1518.67418816 516.06751004 -1521.08829984 514.37768381 -1523.80078125 512.34332275 C-1523.80078125 511.68332275 -1523.80078125 511.02332275 -1523.80078125 510.34332275 C-1524.46078125 510.34332275 -1525.12078125 510.34332275 -1525.80078125 510.34332275 C-1525.80078125 509.68332275 -1525.80078125 509.02332275 -1525.80078125 508.34332275 C-1526.46078125 508.34332275 -1527.12078125 508.34332275 -1527.80078125 508.34332275 C-1527.80078125 507.68332275 -1527.80078125 507.02332275 -1527.80078125 506.34332275 C-1528.46078125 506.34332275 -1529.12078125 506.34332275 -1529.80078125 506.34332275 C-1529.80078125 505.68332275 -1529.80078125 505.02332275 -1529.80078125 504.34332275 C-1530.46078125 504.34332275 -1531.12078125 504.34332275 -1531.80078125 504.34332275 C-1531.80078125 503.68332275 -1531.80078125 503.02332275 -1531.80078125 502.34332275 C-1532.46078125 502.34332275 -1533.12078125 502.34332275 -1533.80078125 502.34332275 C-1537.80078125 497.87273452 -1537.80078125 497.87273452 -1537.80078125 495.34332275 C-1538.46078125 495.34332275 -1539.12078125 495.34332275 -1539.80078125 495.34332275 C-1539.80078125 494.68332275 -1539.80078125 494.02332275 -1539.80078125 493.34332275 C-1540.46078125 493.34332275 -1541.12078125 493.34332275 -1541.80078125 493.34332275 C-1543.32089389 491.45838309 -1544.69522275 489.59267324 -1546.05078125 487.59332275 C-1546.65140381 486.7118457 -1546.65140381 486.7118457 -1547.26416016 485.81256104 C-1560.37383482 466.18752016 -1564.79432431 442.9155832 -1560.42578125 419.71832275 C-1559.50142779 415.11522924 -1558.32324699 410.77928408 -1556.80078125 406.34332275 C-1556.35632782 404.76662465 -1555.91236401 403.18978849 -1555.46875 401.612854 C-1553.84126335 396.16378005 -1551.5928423 391.13968829 -1549.11328125 386.03082275 C-1548.67628906 385.12308105 -1548.23929688 384.21533936 -1547.7890625 383.28009033 C-1544.27431658 376.08903767 -1540.64768334 368.74646057 -1535.80078125 362.34332275 C-1535.14078125 362.34332275 -1534.48078125 362.34332275 -1533.80078125 362.34332275 C-1533.57390625 361.66269775 -1533.34703125 360.98207275 -1533.11328125 360.28082275 C-1531.48851979 356.64445186 -1529.47274868 353.31503012 -1526.80078125 350.34332275 C-1526.14078125 350.34332275 -1525.48078125 350.34332275 -1524.80078125 350.34332275 C-1524.14078125 348.69332275 -1523.48078125 347.04332275 -1522.80078125 345.34332275 C-1522.14078125 345.34332275 -1521.48078125 345.34332275 -1520.80078125 345.34332275 C-1520.80078125 344.68332275 -1520.80078125 344.02332275 -1520.80078125 343.34332275 C-1520.14078125 343.34332275 -1519.48078125 343.34332275 -1518.80078125 343.34332275 C-1518.80078125 342.68332275 -1518.80078125 342.02332275 -1518.80078125 341.34332275 C-1518.14078125 341.34332275 -1517.48078125 341.34332275 -1516.80078125 341.34332275 C-1516.51203125 340.74519775 -1516.22328125 340.14707275 -1515.92578125 339.53082275 C-1514.80078125 337.34332275 -1514.80078125 337.34332275 -1512.80078125 334.34332275 C-1512.14078125 334.34332275 -1511.48078125 334.34332275 -1510.80078125 334.34332275 C-1510.14078125 333.02332275 -1509.48078125 331.70332275 -1508.80078125 330.34332275 C-1508.14078125 330.34332275 -1507.48078125 330.34332275 -1506.80078125 330.34332275 C-1506.53265625 329.70394775 -1506.26453125 329.06457275 -1505.98828125 328.40582275 C-1504.80078125 326.34332275 -1504.80078125 326.34332275 -1501.80078125 325.34332275 C-1501.80078125 324.68332275 -1501.80078125 324.02332275 -1501.80078125 323.34332275 C-1501.14078125 323.34332275 -1500.48078125 323.34332275 -1499.80078125 323.34332275 C-1499.55328125 322.72457275 -1499.30578125 322.10582275 -1499.05078125 321.46832275 C-1497.56337756 318.93973649 -1496.36400116 318.62493271 -1493.80078125 317.34332275 C-1493.50171875 316.7400415 -1493.20265625 316.13676025 -1492.89453125 315.51519775 C-1491.66468382 313.07307214 -1490.23781061 311.51393661 -1488.30078125 309.59332275 C-1487.69234375 308.979729 -1487.08390625 308.36613525 -1486.45703125 307.73394775 C-1484.80078125 306.34332275 -1484.80078125 306.34332275 -1482.80078125 306.34332275 C-1482.58292969 305.78000244 -1482.36507813 305.21668213 -1482.140625 304.6362915 C-1480.3611886 301.59101697 -1478.10671236 299.86004031 -1475.36328125 297.65582275 C-1474.39519531 296.86820557 -1473.42710937 296.08058838 -1472.4296875 295.269104 C-1469.80078125 293.34332275 -1469.80078125 293.34332275 -1466.80078125 292.34332275 C-1466.80078125 291.68332275 -1466.80078125 291.02332275 -1466.80078125 290.34332275 C-1464.97265625 288.68707275 -1464.97265625 288.68707275 -1462.55078125 286.84332275 C-1461.761875 286.23488525 -1460.97296875 285.62644775 -1460.16015625 284.99957275 C-1458.08940446 283.54593242 -1456.09488805 282.39566532 -1453.80078125 281.34332275 C-1453.80078125 280.68332275 -1453.80078125 280.02332275 -1453.80078125 279.34332275 C-1449.33019301 275.34332275 -1449.33019301 275.34332275 -1446.80078125 275.34332275 C-1446.80078125 274.68332275 -1446.80078125 274.02332275 -1446.80078125 273.34332275 C-1445.26171875 272.0112915 -1445.26171875 272.0112915 -1443.17578125 270.53082275 C-1440.50340097 268.60576298 -1437.95542736 266.64960307 -1435.48828125 264.46832275 C-1432.80078125 262.34332275 -1432.80078125 262.34332275 -1429.80078125 262.34332275 C-1429.55328125 261.7400415 -1429.30578125 261.13676025 -1429.05078125 260.51519775 C-1427.59518152 257.98609323 -1426.28953916 257.07559769 -1423.80078125 255.59332275 C-1423.09953125 255.165354 -1422.39828125 254.73738525 -1421.67578125 254.29644775 C-1419.80078125 253.34332275 -1419.80078125 253.34332275 -1417.80078125 253.34332275 C-1417.80078125 252.68332275 -1417.80078125 252.02332275 -1417.80078125 251.34332275 C-1416.15078125 251.01332275 -1414.50078125 250.68332275 -1412.80078125 250.34332275 C-1412.80078125 249.68332275 -1412.80078125 249.02332275 -1412.80078125 248.34332275 C-1411.66640625 247.74519775 -1410.53203125 247.14707275 -1409.36328125 246.53082275 C-1399.89068863 241.27661132 -1390.8688595 235.13277867 -1381.92578125 229.03082275 C-1377.95700231 226.36202921 -1373.80655474 224.11063271 -1369.5859375 221.86676025 C-1365.93161162 219.86790037 -1362.41303134 217.67250707 -1358.89453125 215.44488525 C-1356.80078125 214.34332275 -1356.80078125 214.34332275 -1353.80078125 214.34332275 C-1353.80078125 213.68332275 -1353.80078125 213.02332275 -1353.80078125 212.34332275 C-1352.15078125 212.01332275 -1350.50078125 211.68332275 -1348.80078125 211.34332275 C-1348.80078125 210.68332275 -1348.80078125 210.02332275 -1348.80078125 209.34332275 C-1347.77017578 208.83672119 -1347.77017578 208.83672119 -1346.71875 208.31988525 C-1345.81769531 207.87386963 -1344.91664063 207.427854 -1343.98828125 206.96832275 C-1343.09496094 206.52746338 -1342.20164062 206.086604 -1341.28125 205.63238525 C-1338.65521744 204.32465371 -1338.65521744 204.32465371 -1335.80078125 202.34332275 C-1334.81078125 202.34332275 -1333.82078125 202.34332275 -1332.80078125 202.34332275 C-1332.80078125 201.68332275 -1332.80078125 201.02332275 -1332.80078125 200.34332275 C-1331.20045988 199.5026286 -1329.59536954 198.67100771 -1327.98828125 197.84332275 C-1327.09496094 197.37926025 -1326.20164062 196.91519775 -1325.28125 196.43707275 C-1322.80078125 195.34332275 -1322.80078125 195.34332275 -1319.80078125 195.34332275 C-1319.80078125 194.68332275 -1319.80078125 194.02332275 -1319.80078125 193.34332275 C-1319.0752002 193.04111816 -1318.34961914 192.73891357 -1317.60205078 192.42755127 C-1312.31060713 190.2232783 -1307.01974212 188.0176426 -1301.73046875 185.8081665 C-1299.71223958 184.96571859 -1297.69401042 184.12327067 -1295.67578125 183.28082275 C-1294.66902344 182.85994385 -1293.66226562 182.43906494 -1292.625 182.00543213 C-1287.21321012 179.74760259 -1281.78937365 177.52875961 -1276.33813477 175.36798096 C-1273.63373864 174.27586602 -1270.95559758 173.12951335 -1268.2734375 171.98394775 C-1260.38104373 168.68653559 -1252.313355 165.9040043 -1244.23828125 163.09332275 C-1242.58878045 162.51692207 -1240.93928508 161.94050585 -1239.28979492 161.36407471 C-1216.93963349 153.56796482 -1194.51311951 146.02361991 -1171.80078125 139.34332275 C-1170.22321045 138.87442627 -1170.22321045 138.87442627 -1168.61376953 138.39605713 C-1144.21367538 131.23721402 -1119.2474631 126.55139127 -1094.32177734 121.63336182 C-1089.41899013 120.6657335 -1084.51942347 119.68345472 -1079.6217804 118.69015503 C-1006.01109572 103.76790792 -931.47565063 94.06474454 -856.80078125 86.34332275 C-855.74197754 86.23371216 -854.68317383 86.12410156 -853.59228516 86.01116943 C-840.48045633 84.6573778 -827.36328715 83.3594508 -814.24462891 82.0737915 C-798.51201099 80.53130934 -782.78110101 78.97155046 -767.05078125 77.40582275 C-766.1805986 77.31925667 -765.31041595 77.23269058 -764.41386414 77.14350128 C-741.58021374 74.87110919 -718.76068784 72.51924566 -695.96133423 69.92172241 C-682.56492431 68.39586074 -669.16325833 66.95784599 -655.74609375 65.628479 C-655.01016054 65.55552109 -654.27422733 65.48256317 -653.51599312 65.40739441 C-650.5183018 65.11029446 -647.52059178 64.81338356 -644.52287388 64.51655197 C-609.05590644 61.00242033 -573.82194189 56.55359538 -538.55761719 51.38018799 C-537.39355347 51.2094577 -536.22948975 51.03872742 -535.03015137 50.86282349 C-532.66839156 50.51641441 -530.30665654 50.16983637 -527.94494629 49.8230896 C-505.09483263 46.47355041 -482.21611127 43.48640722 -459.28399658 40.75805664 C-455.55874053 40.31450384 -451.83381482 39.86823413 -448.10888672 39.42193604 C-408.19994099 34.64771285 -368.25722574 30.31215556 -328.25715351 26.37570381 C-322.06043284 25.76585185 -315.86436344 25.15032499 -309.66943359 24.52252197 C-265.4667981 20.04334935 -221.24623987 16.31818033 -176.86053467 14.23773193 C-161.71832342 13.52333354 -146.60572542 12.4592374 -131.48828125 11.34332275 C-130.33752106 11.25937256 -129.18676086 11.17542236 -128.00112915 11.08892822 C-116.57497357 10.25144651 -105.17668069 9.34642178 -93.79698181 8.01161194 C-88.64779339 7.4135198 -83.51219394 7.01745033 -78.33781433 6.72502136 C-68.94059034 6.16983138 -59.80057927 5.2682813 -50.55349731 3.47618103 C-33.5973817 0.22757944 -17.21496483 -0.28469325 0 0 Z " fill="#000000" transform="translate(1685.80078125,-0.34332275390625)"/>
</svg>
